<svg width="839" height="835" viewBox="0 0 839 835" fill="none" xmlns="http://www.w3.org/2000/svg">
<ellipse opacity="0.5" cx="411" cy="380" rx="335" ry="254" fill="url(#paint0_radial_257_443)"/>
<path fill-rule="evenodd" clip-rule="evenodd" d="M487 215.092V479.408C487 521.403 452.947 555.5 410.999 555.5C369.053 555.5 335 521.403 335 479.408L335 215.092C335 173.097 369.053 139 410.999 139C452.947 139 487 173.097 487 215.092ZM436.332 215.092C436.332 201.1 424.983 189.735 410.999 189.735C397.017 189.735 385.667 201.1 385.667 215.092V479.408C385.667 493.4 397.017 504.765 410.999 504.765C424.983 504.765 436.332 493.4 436.332 479.408V215.092Z" fill="white"/>
<path fill-rule="evenodd" clip-rule="evenodd" d="M503 302.418C503 288.425 514.386 277.059 528.411 277.059C542.436 277.059 553.823 288.425 553.823 302.418V376.468L579.234 351.104V302.418C579.234 288.425 590.621 277.059 604.646 277.059C618.671 277.059 630.057 288.425 630.057 302.418V320.778C633.53 321.998 636.79 323.992 639.566 326.762C649.478 336.659 649.479 352.733 639.564 362.632L630.057 372.121V437.699C630.057 451.692 618.671 463.059 604.646 463.059C590.621 463.059 579.234 451.692 579.234 437.699V422.848L546.388 455.632C542.924 459.091 538.703 461.342 534.255 462.383C532.379 462.825 530.422 463.059 528.411 463.059C525.256 463.059 522.235 462.483 519.446 461.432C516.163 460.2 513.085 458.267 510.445 455.632C508.459 453.649 506.87 451.418 505.68 449.038C503.965 445.625 503 441.773 503 437.699V302.418Z" fill="white"/>
<path fill-rule="evenodd" clip-rule="evenodd" d="M411 442.184L802.878 834.062L838.94 798L411 370.059V442.184Z" fill="url(#paint1_linear_257_443)"/>
<path fill-rule="evenodd" clip-rule="evenodd" d="M352.438 388.499V316.374L36.0624 0L0 36.0624L352.438 388.499Z" fill="url(#paint2_linear_257_443)"/>
<path fill-rule="evenodd" clip-rule="evenodd" d="M208.373 278.376C198.279 281.754 191 291.25 191 302.418V437.698C191 451.692 202.426 463.058 216.5 463.058C230.574 463.058 242 451.692 242 437.698V312.003L208.373 278.376ZM267 337.003V437.698C267 451.692 278.426 463.058 292.5 463.058C306.574 463.058 318 451.692 318 437.698V388.003L267 337.003Z" fill="white"/>
<defs>
<radialGradient id="paint0_radial_257_443" cx="0" cy="0" r="1" gradientUnits="userSpaceOnUse" gradientTransform="translate(411 380) rotate(90) scale(224.799 296.487)">
<stop stop-color="#2B67FF"/>
<stop offset="1" stop-color="#2B67FF" stop-opacity="0"/>
</radialGradient>
<linearGradient id="paint1_linear_257_443" x1="502" y1="533.5" x2="795.5" y2="827" gradientUnits="userSpaceOnUse">
<stop stop-color="white"/>
<stop offset="1" stop-color="white" stop-opacity="0"/>
</linearGradient>
<linearGradient id="paint2_linear_257_443" x1="17" y1="42.5" x2="290" y2="315.5" gradientUnits="userSpaceOnUse">
<stop stop-color="white" stop-opacity="0"/>
<stop offset="1" stop-color="white"/>
</linearGradient>
</defs>
</svg>
