<svg width="473" height="475" viewBox="0 0 473 475" fill="none" xmlns="http://www.w3.org/2000/svg">
<path fill-rule="evenodd" clip-rule="evenodd" d="M169.435 249.498V177.374L36.0624 44L0 80.0624L169.435 249.498Z" fill="url(#paint0_linear_305_6)"/>
<path fill-rule="evenodd" clip-rule="evenodd" d="M328.996 163.418C328.996 149.425 340.383 138.059 354.408 138.059C368.433 138.059 379.819 149.425 379.819 163.418V237.468L405.23 212.104V163.418C405.23 149.425 416.617 138.059 430.642 138.059C444.667 138.059 456.053 149.425 456.053 163.418V181.778C459.526 182.998 462.786 184.992 465.562 187.762C475.474 197.659 475.475 213.733 465.56 223.632L456.053 233.121V298.699C456.053 312.692 444.667 324.059 430.642 324.059C416.617 324.059 405.23 312.692 405.23 298.699V283.848L372.384 316.632C368.92 320.091 364.699 322.342 360.251 323.383C358.375 323.825 356.418 324.059 354.408 324.059C351.252 324.059 348.231 323.483 345.442 322.432C342.159 321.2 339.081 319.267 336.441 316.632C334.455 314.649 332.866 312.418 331.676 310.038C329.961 306.625 328.996 302.773 328.996 298.699V163.418Z" fill="white"/>
<path fill-rule="evenodd" clip-rule="evenodd" d="M34.3708 139.375C24.2767 142.753 16.998 152.249 16.998 163.417V298.697C16.998 312.691 28.4242 324.057 42.498 324.057C56.5719 324.057 67.998 312.691 67.998 298.697V173.002L34.3708 139.375ZM92.998 198.002V298.697C92.998 312.691 104.424 324.057 118.498 324.057C132.572 324.057 143.998 312.691 143.998 298.697V249.002L92.998 198.002Z" fill="white"/>
<path fill-rule="evenodd" clip-rule="evenodd" d="M312.996 298V76.0919C312.996 34.0971 278.943 0 236.995 0C195.049 0 160.996 34.0971 160.996 76.0919V340.408C160.996 382.403 195.049 416.5 236.995 416.5C267.598 416.5 293.999 398.352 306.041 372.229L408.812 475L444.874 438.938L344.798 338.861C326.556 334.493 312.996 318.08 312.996 298.5C312.996 298.333 312.997 298.166 312.999 298H312.996ZM262.328 256.391V76.0919C262.328 62.1003 250.979 50.7346 236.995 50.7346C223.013 50.7346 211.664 62.1003 211.664 76.0919V340.408C211.664 354.4 223.013 365.765 236.995 365.765C250.979 365.765 262.328 354.4 262.328 340.408V328.516L236.996 303.184V231.059L262.328 256.391Z" fill="url(#paint1_linear_305_6)"/>
<defs>
<linearGradient id="paint0_linear_305_6" x1="7.99807" y1="77.5" x2="118.998" y2="188.5" gradientUnits="userSpaceOnUse">
<stop stop-color="white" stop-opacity="0"/>
<stop offset="1" stop-color="white"/>
</linearGradient>
<linearGradient id="paint1_linear_305_6" x1="312.998" y1="361" x2="420.779" y2="452.971" gradientUnits="userSpaceOnUse">
<stop stop-color="white"/>
<stop offset="1" stop-color="white" stop-opacity="0"/>
</linearGradient>
</defs>
</svg>
