<svg width="837" height="824" viewBox="0 0 837 824" fill="none" xmlns="http://www.w3.org/2000/svg">
<ellipse opacity="0.5" cx="419" cy="380" rx="335" ry="254" fill="url(#paint0_radial_286_549)"/>
<path fill-rule="evenodd" clip-rule="evenodd" d="M352.438 388.499V316.374L36.0624 0L0 36.0624L352.438 388.499Z" fill="url(#paint1_linear_286_549)"/>
<path fill-rule="evenodd" clip-rule="evenodd" d="M496 215.092V437H496.003C496.001 437.166 496 437.333 496 437.5C496 457.08 509.56 473.493 527.802 477.861L836.941 787L800.878 823.062L489.045 511.229C477.003 537.352 450.602 555.5 419.999 555.5C378.053 555.5 344 521.403 344 479.408V215.092C344 173.097 378.053 139 419.999 139C461.947 139 496 173.097 496 215.092ZM445.332 215.092V395.391L420 370.059V442.184L445.332 467.516V479.408C445.332 493.4 433.983 504.765 419.999 504.765C406.017 504.765 394.667 493.4 394.667 479.408V215.092C394.667 201.1 406.017 189.735 419.999 189.735C433.983 189.735 445.332 201.1 445.332 215.092ZM512 302.418C512 288.425 523.386 277.059 537.411 277.059C551.436 277.059 562.823 288.425 562.823 302.418V376.468L588.234 351.104V302.418C588.234 288.425 599.621 277.059 613.646 277.059C627.671 277.059 639.057 288.425 639.057 302.418V320.778C642.53 321.998 645.79 323.992 648.566 326.762C658.478 336.659 658.479 352.733 648.564 362.632L639.057 372.121V437.699C639.057 451.692 627.671 463.059 613.646 463.059C599.621 463.059 588.234 451.692 588.234 437.699V422.848L555.388 455.632C551.924 459.091 547.703 461.342 543.255 462.383C541.379 462.825 539.422 463.059 537.411 463.059C534.256 463.059 531.235 462.483 528.446 461.432C525.163 460.2 522.085 458.267 519.445 455.632C517.459 453.649 515.87 451.418 514.68 449.038C512.965 445.625 512 441.773 512 437.699V302.418ZM217.373 278.375C207.279 281.753 200 291.249 200 302.417V437.697C200 451.691 211.426 463.057 225.5 463.057C239.574 463.057 251 451.691 251 437.697V312.002L217.373 278.375ZM276 337.002V437.698C276 451.691 287.426 463.057 301.5 463.057C315.574 463.057 327 451.691 327 437.698V388.002L276 337.002Z" fill="url(#paint2_linear_286_549)"/>
<defs>
<radialGradient id="paint0_radial_286_549" cx="0" cy="0" r="1" gradientUnits="userSpaceOnUse" gradientTransform="translate(419 380) rotate(90) scale(224.799 296.487)">
<stop stop-color="#2B67FF"/>
<stop offset="1" stop-color="#2B67FF" stop-opacity="0"/>
</radialGradient>
<linearGradient id="paint1_linear_286_549" x1="17" y1="42.5" x2="290" y2="315.5" gradientUnits="userSpaceOnUse">
<stop stop-color="white" stop-opacity="0"/>
<stop offset="1" stop-color="white"/>
</linearGradient>
<linearGradient id="paint2_linear_286_549" x1="508.661" y1="529.625" x2="795.202" y2="815.581" gradientUnits="userSpaceOnUse">
<stop stop-color="white"/>
<stop offset="1" stop-color="white" stop-opacity="0"/>
</linearGradient>
</defs>
</svg>
