<svg width="280" height="280" viewBox="0 0 280 280" fill="none" xmlns="http://www.w3.org/2000/svg">
<g clip-path="url(#clip0_1085_454)">
<rect width="280" height="280" rx="24" fill="#151515"/>
<path fill-rule="evenodd" clip-rule="evenodd" d="M155.556 20.5598C163.111 16.1454 172.583 21.626 172.583 30.4122V33.8835V48.8389V55.9615C172.583 58.3213 174.486 60.2347 176.833 60.2347H185.333C188.463 60.2347 191 62.7858 191 65.9322C191 69.0787 188.463 71.6298 185.333 71.6298H131.5C128.37 71.6298 125.833 74.1809 125.833 77.3273V111.965C125.833 115.111 128.37 117.662 131.5 117.662C131.696 117.662 131.89 117.652 132.081 117.633C132.366 117.604 132.646 117.553 132.917 117.483L183.639 88.1855C186.915 86.2937 191 88.6709 191 92.4698V93.3496V94.3142V143.758L154.167 165.033V126.213C154.167 123.066 151.63 120.516 148.5 120.516C148.011 120.516 147.536 120.578 147.083 120.695L96.3611 149.992C93.0854 151.884 89 149.506 89 145.709C89 145.498 89.0135 145.289 89.0394 145.083C89.0135 144.858 89 144.629 89 144.395V65.9322C89 62.7858 91.5369 60.2347 94.6667 60.2347H103.167C105.514 60.2347 107.417 58.3213 107.417 55.9615V52.9034V48.6852L110.986 46.5993L111.044 46.5653L117.516 42.7845L117.556 42.7609L131.5 34.6145V50.876V55.9615C131.5 58.3213 133.403 60.2347 135.75 60.2347H144.25C146.597 60.2347 148.5 58.3213 148.5 55.9615V48.8389V31.2399V24.6827L154.069 21.4284L154.139 21.3874L154.521 21.1648L155.556 20.5598ZM168.508 233.696L172.583 231.316V226.576V224.039C172.583 221.679 174.486 219.766 176.833 219.766H185.333C188.463 219.766 191 217.215 191 214.069V166.549V155.154L154.167 176.428V179.288V202.673C154.167 205.82 151.63 208.371 148.5 208.371H131.5C128.37 208.371 125.833 205.82 125.833 202.673V163.783C125.833 159.472 121.255 156.723 117.48 158.766L91.98 172.572C90.1445 173.566 89 175.493 89 177.589V214.069C89 217.215 91.5369 219.766 94.6667 219.766H103.167C105.514 219.766 107.417 221.679 107.417 224.039V229.736V241.132V249.588C107.417 258.374 116.889 263.855 124.444 259.44L125.479 258.836L125.861 258.613L131.5 255.318V248.76V229.736V224.039C131.5 221.679 133.403 219.766 135.75 219.766H144.25C146.597 219.766 148.5 221.679 148.5 224.039V228.22V245.386L163.262 236.761L168.508 233.696Z" fill="white"/>
</g>
<defs>
<clipPath id="clip0_1085_454">
<rect width="280" height="280" fill="white"/>
</clipPath>
</defs>
</svg>
