<?xml version="1.0" encoding="UTF-8" standalone="no"?>
<!DOCTYPE svg PUBLIC "-//W3C//DTD SVG 1.1//EN" "http://www.w3.org/Graphics/SVG/1.1/DTD/svg11.dtd">
<svg width="100%" height="100%" viewBox="0 0 280 280" version="1.1" xmlns="http://www.w3.org/2000/svg" xmlns:xlink="http://www.w3.org/1999/xlink" xml:space="preserve" xmlns:serif="http://www.serif.com/" style="fill-rule:evenodd;clip-rule:evenodd;stroke-linejoin:round;stroke-miterlimit:2;">
    <g transform="matrix(1,0,0,1,-1848.73,0)">
        <g id="Artboard2" transform="matrix(0.284258,0,0,0.498761,1178.72,-954.074)">
            <path d="M3342.08,2009.13C3342.08,1956.01 3266.41,1912.89 3173.22,1912.89L2525.92,1912.89C2432.72,1912.89 2357.06,1956.01 2357.06,2009.13L2357.06,2378.04C2357.06,2431.16 2432.72,2474.28 2525.92,2474.28L3173.22,2474.28C3266.41,2474.28 3342.08,2431.16 3342.08,2378.04L3342.08,2009.13Z" style="fill:white;"/>
            <clipPath id="_clip1">
                <path d="M3342.08,2009.13C3342.08,1956.01 3266.41,1912.89 3173.22,1912.89L2525.92,1912.89C2432.72,1912.89 2357.06,1956.01 2357.06,2009.13L2357.06,2378.04C2357.06,2431.16 2432.72,2474.28 2525.92,2474.28L3173.22,2474.28C3266.41,2474.28 3342.08,2431.16 3342.08,2378.04L3342.08,2009.13Z"/>
            </clipPath>
            <g clip-path="url(#_clip1)">
                <g transform="matrix(3.51793,0,0,1.90164,785.16,68.8613)">
                    <path d="M482.824,1083.57C482.824,1076.59 488.201,1070.92 494.824,1070.92C501.447,1070.92 506.824,1076.59 506.824,1083.57L506.824,1151.05C506.824,1158.03 501.447,1163.7 494.824,1163.7C488.201,1163.7 482.824,1158.03 482.824,1151.05L482.824,1083.57Z" style="fill:rgb(20,21,24);"/>
                </g>
                <g transform="matrix(3.51793,0,0,1.90164,911.806,68.8613)">
                    <path d="M482.824,1083.57C482.824,1076.59 488.201,1070.92 494.824,1070.92C501.447,1070.92 506.824,1076.59 506.824,1083.57L506.824,1151.05C506.824,1158.03 501.447,1163.7 494.824,1163.7C488.201,1163.7 482.824,1158.03 482.824,1151.05L482.824,1083.57Z" style="fill:rgb(20,21,24);"/>
                </g>
                <g transform="matrix(3.51793,0,0,1.90164,1432.46,68.8613)">
                    <path d="M482.824,1083.57C482.824,1076.59 488.201,1070.92 494.824,1070.92C501.447,1070.92 506.824,1076.59 506.824,1083.57L506.824,1151.05C506.824,1158.03 501.447,1163.7 494.824,1163.7C488.201,1163.7 482.824,1158.03 482.824,1151.05L482.824,1083.57Z" style="fill:rgb(20,21,24);"/>
                </g>
                <g transform="matrix(3.51793,0,0,1.90164,1305.81,68.8613)">
                    <path d="M482.824,1083.57C482.824,1076.59 488.201,1070.92 494.824,1070.92C501.447,1070.92 506.824,1076.59 506.824,1083.57L506.824,1151.05C506.824,1158.03 501.447,1163.7 494.824,1163.7C488.201,1163.7 482.824,1158.03 482.824,1151.05L482.824,1083.57Z" style="fill:rgb(20,21,24);"/>
                </g>
                <g transform="matrix(-0.216857,-1.94906,1.4926,0.0616915,1535.32,3089.83)">
                    <path d="M452.953,1098.31C447.762,1086.52 447.192,1068.51 451.681,1058.12C456.169,1047.74 464.028,1048.88 469.219,1060.67L517.987,1171.46C523.178,1183.26 523.748,1201.26 519.259,1211.65C514.771,1222.03 506.912,1220.89 501.721,1209.1L452.953,1098.31Z" style="fill:rgb(20,21,24);"/>
                </g>
                <g transform="matrix(4.50392,0,0,1.90164,309.752,-1667.65)">
                    <path d="M592.031,2022.04L592.031,2038.91C592.031,2059.86 579.432,2076.87 563.912,2076.87C548.393,2076.87 535.794,2059.86 535.794,2038.91L535.794,2022.04C535.794,2001.09 548.393,1984.08 563.912,1984.08C579.432,1984.08 592.031,2001.09 592.031,2022.04ZM573.285,2022.04C573.285,2015.06 569.086,2009.39 563.912,2009.39C558.739,2009.39 554.54,2015.06 554.54,2022.04L554.54,2038.91C554.54,2045.89 558.739,2051.56 563.912,2051.56C569.086,2051.56 573.285,2045.89 573.285,2038.91L573.285,2022.04Z" style="fill:rgb(20,21,24);"/>
                </g>
            </g>
        </g>
    </g>
</svg>
