<svg width="216" height="121" viewBox="0 0 216 121" fill="none" xmlns="http://www.w3.org/2000/svg">
<path fill-rule="evenodd" clip-rule="evenodd" d="M148.904 81.0034C148.317 79.586 147.992 78.026 147.992 76.3994V12.209C147.992 5.56927 153.369 0.175781 159.992 0.175781C166.615 0.175781 171.992 5.56927 171.992 12.209V47.3387L183.992 35.3054V12.209C183.992 5.56927 189.369 0.175781 195.992 0.175781C202.615 0.175781 207.992 5.56927 207.992 12.209V20.9225C209.631 21.5027 211.168 22.4444 212.478 23.7572C217.161 28.4563 217.161 36.0759 212.478 40.775L207.992 45.2744V76.3994C207.992 83.0391 202.615 88.4326 195.992 88.4326C189.369 88.4326 183.992 83.0391 183.992 76.3994V69.3506L168.478 84.9035C167.327 86.064 166.001 86.9297 164.585 87.5194C163.17 88.1092 161.619 88.4326 159.992 88.4326C158.366 88.4326 156.814 88.1092 155.399 87.5194C153.983 86.9297 152.657 86.064 151.507 84.9035C150.357 83.7525 149.489 82.4208 148.904 81.0034ZM-0.0078125 12.209C-0.0078125 5.56927 5.36919 0.175781 11.9922 0.175781C18.6152 0.175781 23.9922 5.56927 23.9922 12.209V76.3994C23.9922 83.0391 18.6152 88.4326 11.9922 88.4326C5.36919 88.4326 -0.0078125 83.0391 -0.0078125 76.3994V12.209ZM35.9921 12.209C35.9921 5.56927 41.3691 0.175781 47.9921 0.175781C54.6151 0.175781 59.9921 5.56927 59.9921 12.209V76.3994C59.9921 83.0391 54.6151 88.4326 47.9921 88.4326C41.3691 88.4326 35.9921 83.0391 35.9921 76.3994V12.209ZM139.992 36.2756V52.3232C139.992 72.2519 123.861 88.4326 103.992 88.4326C84.1231 88.4326 67.9921 72.2519 67.9921 52.3232V36.2756C67.9921 16.3565 84.1231 0.175781 103.992 0.175781C123.861 0.175781 139.992 16.3565 139.992 36.2756ZM115.992 36.2756C115.992 29.6359 110.615 24.2423 103.992 24.2423C97.3691 24.2423 91.9921 29.6359 91.9921 36.2756V52.3232C91.9921 58.9724 97.3691 64.3565 103.992 64.3565C110.615 64.3565 115.992 58.9724 115.992 52.3232V36.2756ZM2.46619 119.929V101.684H6.86719C7.94519 101.684 8.77318 101.883 9.34918 102.283C9.92518 102.682 10.3222 103.225 10.5392 103.909C10.7562 104.585 10.8652 105.355 10.8652 106.192C10.8652 106.868 10.7942 107.515 10.6512 108.133C10.5092 108.742 10.2472 109.265 9.86517 109.693C9.48417 110.121 8.92617 110.397 8.19217 110.521L11.1122 119.929H9.89917L7.07019 110.739H3.67917V119.929H2.46619ZM3.67917 109.798H6.82318C7.60118 109.798 8.19217 109.655 8.59717 109.36C9.00117 109.065 9.28218 108.647 9.43918 108.104C9.59618 107.562 9.67517 106.925 9.67517 106.192C9.67517 105.032 9.48417 104.157 9.10217 103.557C8.72017 102.958 7.95317 102.654 6.80017 102.654H3.67917V109.798ZM13.8512 119.929V101.684H20.1392V102.682H15.0872V109.997H19.2412V110.949H15.0872V118.968H20.2072V119.929H13.8512ZM26.3372 120.157C25.3792 120.157 24.5892 119.967 23.9682 119.567C23.3472 119.177 22.8752 118.635 22.5532 117.931C22.2322 117.217 22.0332 116.39 21.9582 115.429L23.0142 115.087C23.1192 115.886 23.2802 116.59 23.4972 117.208C23.7142 117.826 24.0472 118.302 24.4962 118.635C24.9452 118.977 25.5662 119.139 26.3602 119.139C27.2582 119.139 27.9652 118.92 28.4822 118.464C28.9982 118.017 29.2572 117.265 29.2572 116.219C29.2572 115.42 29.0512 114.706 28.6392 114.059C28.2272 113.422 27.6472 112.737 26.8992 112.005L23.5752 108.694C23.0212 108.124 22.6172 107.553 22.3632 106.982C22.1082 106.411 21.9812 105.821 21.9812 105.222C21.9812 104.024 22.3512 103.101 23.0922 102.454C23.8332 101.807 24.7952 101.484 25.9782 101.484C26.5922 101.484 27.1462 101.569 27.6402 101.722C28.1342 101.883 28.5642 102.131 28.9312 102.492C29.2982 102.844 29.5862 103.31 29.7962 103.89C30.0052 104.48 30.1402 105.203 30.2002 106.059L29.1672 106.307C29.1072 105.45 28.9652 104.737 28.7402 104.166C28.5162 103.596 28.1862 103.168 27.7522 102.892C27.3182 102.616 26.7342 102.473 26.0012 102.473C25.1772 102.473 24.4882 102.682 23.9352 103.11C23.3812 103.529 23.1042 104.204 23.1042 105.137C23.1042 105.603 23.1972 106.05 23.3842 106.487C23.5712 106.925 23.9202 107.391 24.4292 107.905L27.7072 111.148C28.4412 111.871 29.0732 112.642 29.6052 113.46C30.1362 114.278 30.4022 115.172 30.4022 116.152C30.4022 117.065 30.2302 117.817 29.8862 118.406C29.5412 119.006 29.0622 119.443 28.4482 119.729C27.8342 120.014 27.1312 120.157 26.3372 120.157ZM32.8272 119.929V101.684H39.1152V102.682H34.0622V109.997H38.2172V110.949H34.0622V118.968H39.1832V119.929H32.8272ZM40.7102 119.929L44.5272 101.684H45.9422L49.7822 119.929H48.5472L47.6041 114.887H42.8881L41.9222 119.929H40.7102ZM43.0682 113.983H47.4472L45.2462 103.177L43.0682 113.983ZM52.1852 119.929V101.684H56.5862C57.6642 101.684 58.4912 101.883 59.0682 102.283C59.6442 102.682 60.0412 103.225 60.2582 103.909C60.4752 104.585 60.5842 105.355 60.5842 106.192C60.5842 106.868 60.5132 107.515 60.3702 108.133C60.2282 108.742 59.9662 109.265 59.5842 109.693C59.2032 110.121 58.6451 110.397 57.9111 110.521L60.8312 119.929H59.6182L56.7891 110.739H53.3981V119.929H52.1852ZM53.3981 109.798H56.5422C57.3202 109.798 57.9112 109.655 58.3162 109.36C58.7202 109.065 59.0012 108.647 59.1582 108.104C59.3152 107.562 59.3931 106.925 59.3931 106.192C59.3931 105.032 59.2032 104.157 58.8212 103.557C58.4392 102.958 57.6722 102.654 56.5192 102.654H53.3981V109.798ZM67.6351 120.176C66.4371 120.176 65.5202 119.929 64.8842 119.434C64.2482 118.939 63.8101 118.273 63.5701 117.446C63.3311 116.609 63.2112 115.686 63.2112 114.687V106.934C63.2112 105.888 63.3382 104.946 63.5932 104.128C63.8472 103.31 64.2971 102.663 64.9401 102.197C65.5841 101.722 66.4821 101.484 67.6351 101.484C68.6981 101.484 69.5292 101.693 70.1282 102.121C70.7272 102.54 71.1532 103.129 71.4082 103.909C71.6622 104.68 71.7902 105.584 71.7902 106.62V107.543H70.6221V106.62C70.6221 105.745 70.5391 105.013 70.3751 104.404C70.2101 103.795 69.9112 103.329 69.4772 102.996C69.0422 102.663 68.4291 102.502 67.6351 102.502C66.7671 102.502 66.1012 102.682 65.6362 103.044C65.1722 103.396 64.8582 103.9 64.6932 104.547C64.5292 105.194 64.4462 105.945 64.4462 106.801V114.868C64.4462 115.762 64.5361 116.533 64.7161 117.17C64.8951 117.807 65.2172 118.302 65.6812 118.644C66.1452 118.996 66.7971 119.168 67.6351 119.168C68.4441 119.168 69.0652 118.996 69.4992 118.644C69.9332 118.302 70.2292 117.817 70.3862 117.198C70.5432 116.571 70.6221 115.848 70.6221 115.02V113.917H71.7902V114.82C71.7902 115.857 71.6702 116.78 71.4302 117.588C71.1912 118.397 70.7722 119.034 70.1732 119.491C69.5742 119.948 68.7281 120.176 67.6351 120.176ZM74.5521 119.929V101.684H75.7872V109.912H82.1641V101.684H83.3771V119.929H82.1641V110.854H75.7872V119.929H74.5521ZM94.9202 120.176C93.9472 120.176 93.1382 119.986 92.4952 119.596C91.8512 119.206 91.3721 118.692 91.0571 118.055C90.7431 117.408 90.5862 116.723 90.5862 115.99C90.5862 115.163 90.8031 114.326 91.2371 113.47C91.6711 112.613 92.4721 111.615 93.6401 110.473C93.1311 109.645 92.7121 108.942 92.3821 108.352C92.0531 107.772 91.8102 107.229 91.6522 106.744C91.4952 106.259 91.4172 105.745 91.4172 105.222C91.4172 104.414 91.5741 103.729 91.8881 103.177C92.2031 102.616 92.6482 102.197 93.2242 101.912C93.8012 101.626 94.4781 101.484 95.2571 101.484C96.0201 101.484 96.6711 101.617 97.2101 101.864C97.7491 102.121 98.1652 102.492 98.4572 102.958C98.7492 103.434 98.8951 104.005 98.8951 104.661C98.8951 105.279 98.7301 105.898 98.4011 106.535C98.0711 107.163 97.6072 107.819 97.0082 108.495C96.4092 109.17 95.6912 109.874 94.8522 110.606L98.8052 116.865C99.1492 116.447 99.4491 115.943 99.7031 115.353C99.9581 114.754 100.163 114.164 100.321 113.565C100.478 112.975 100.556 112.461 100.556 112.024H101.657C101.657 112.537 101.571 113.127 101.399 113.802C101.226 114.478 100.979 115.153 100.658 115.829C100.336 116.504 99.9431 117.113 99.4791 117.636C99.8981 118.178 100.279 118.53 100.624 118.701C100.968 118.873 101.335 118.968 101.724 118.968V120.062C101.634 120.062 101.548 120.062 101.466 120.052C101.384 120.043 101.305 120.033 101.23 120.024C100.916 119.976 100.613 119.881 100.321 119.738C100.029 119.596 99.7522 119.405 99.4902 119.177C99.2282 118.949 98.9841 118.682 98.7601 118.378C98.3411 118.844 97.8062 119.263 97.1542 119.624C96.5032 119.995 95.7582 120.176 94.9202 120.176ZM94.9202 119.168C95.5342 119.168 96.0951 119.044 96.6041 118.797C97.1131 118.549 97.6222 118.15 98.1312 117.607L94.1342 111.329C93.2362 112.29 92.6181 113.127 92.2811 113.85C91.9441 114.573 91.7761 115.296 91.7761 116.009C91.7761 116.494 91.8772 116.98 92.0792 117.465C92.2812 117.95 92.6111 118.359 93.0671 118.682C93.5241 119.006 94.1412 119.168 94.9202 119.168ZM94.4261 109.864C95.0101 109.303 95.5521 108.742 96.0541 108.171C96.5551 107.6 96.9602 107.02 97.2672 106.421C97.5732 105.821 97.7272 105.213 97.7272 104.613C97.7272 103.928 97.4992 103.396 97.0422 103.044C96.5852 102.682 95.9752 102.502 95.2122 102.502C94.3142 102.502 93.6512 102.758 93.2242 103.291C92.7982 103.814 92.5842 104.452 92.5842 105.203C92.5842 105.888 92.7341 106.582 93.0331 107.267C93.3331 107.943 93.7972 108.808 94.4261 109.864ZM108.776 119.929V101.684H109.988V119.929H108.776ZM113.379 119.929V101.684H114.345L120.52 117.094V101.684H121.598V119.929H120.633L114.457 104.499V119.929H113.379ZM128.201 119.929L123.799 101.684H125.012L128.784 117.788L132.31 101.684H133.5L129.346 119.929H128.201ZM135.701 119.929V101.684H141.989V102.682H136.936V109.997H141.091V110.949H136.936V118.968H142.056V119.929H135.701ZM148.187 120.157C147.229 120.157 146.439 119.967 145.818 119.567C145.196 119.177 144.725 118.635 144.403 117.931C144.081 117.217 143.883 116.39 143.808 115.429L144.863 115.087C144.968 115.886 145.129 116.59 145.346 117.208C145.563 117.826 145.896 118.302 146.345 118.635C146.795 118.977 147.416 119.139 148.209 119.139C149.108 119.139 149.815 118.92 150.332 118.464C150.848 118.017 151.106 117.265 151.106 116.219C151.106 115.42 150.9 114.706 150.489 114.059C150.077 113.422 149.497 112.737 148.748 112.005L145.425 108.694C144.871 108.124 144.467 107.553 144.212 106.982C143.958 106.411 143.83 105.821 143.83 105.222C143.83 104.024 144.201 103.101 144.942 102.454C145.683 101.807 146.645 101.484 147.828 101.484C148.441 101.484 148.995 101.569 149.489 101.722C149.983 101.883 150.414 102.131 150.781 102.492C151.147 102.844 151.436 103.31 151.645 103.89C151.855 104.48 151.99 105.203 152.049 106.059L151.016 106.307C150.957 105.45 150.814 104.737 150.59 104.166C150.365 103.596 150.036 103.168 149.602 102.892C149.168 102.616 148.584 102.473 147.85 102.473C147.027 102.473 146.338 102.682 145.784 103.11C145.23 103.529 144.953 104.204 144.953 105.137C144.953 105.603 145.047 106.05 145.234 106.487C145.421 106.925 145.769 107.391 146.278 107.905L149.557 111.148C150.29 111.871 150.923 112.642 151.454 113.46C151.986 114.278 152.252 115.172 152.252 116.152C152.252 117.065 152.079 117.817 151.735 118.406C151.391 119.006 150.912 119.443 150.298 119.729C149.684 120.014 148.98 120.157 148.187 120.157ZM157.102 119.929V102.682H153.464V101.684H161.863V102.682H158.315V119.929H157.102ZM163.547 119.929L164.086 101.684H165.299L169.139 118.15L173.046 101.684H174.304L174.82 119.929H173.765L173.316 104.642L169.611 119.929H168.712L165.052 104.661L164.603 119.929H163.547ZM177.942 119.929V101.684H184.23V102.682H179.177V109.997H183.332V110.949H179.177V118.968H184.297V119.929H177.942ZM186.79 119.929V101.684H187.755L193.931 117.094V101.684H195.009V119.929H194.043L187.868 104.499V119.929H186.79ZM200.758 119.929V102.682H197.12V101.684H205.519V102.682H201.971V119.929H200.758Z" fill="white"/>
</svg>
