<svg width="216" height="88" viewBox="0 0 216 88" fill="none" xmlns="http://www.w3.org/2000/svg">
<path fill-rule="evenodd" clip-rule="evenodd" d="M148.904 80.5924C148.317 79.1792 147.992 77.6237 147.992 76.0018V11.9982C147.992 5.3778 153.369 0 159.992 0C166.615 0 171.992 5.3778 171.992 11.9982V47.0257L183.992 35.0273V11.9982C183.992 5.3778 189.369 0 195.992 0C202.615 0 207.992 5.3778 207.992 11.9982V20.6863C209.631 21.2649 211.168 22.2039 212.478 23.5128C217.161 28.1983 217.161 35.7956 212.478 40.4811L207.992 44.9674V76.0018C207.992 82.6222 202.615 88 195.992 88C189.369 88 183.992 82.6222 183.992 76.0018V68.9735L168.478 84.4812C167.327 85.6383 166.001 86.5014 164.585 87.0895C163.17 87.6776 161.619 88 159.992 88C158.366 88 156.814 87.6776 155.399 87.0895C153.983 86.5014 152.657 85.6383 151.507 84.4812C150.357 83.3335 149.489 82.0057 148.904 80.5924ZM-0.0078125 11.9982C-0.0078125 5.3778 5.36919 0 11.9922 0C18.6152 0 23.9922 5.3778 23.9922 11.9982V76.0018C23.9922 82.6222 18.6152 88 11.9922 88C5.36919 88 -0.0078125 82.6222 -0.0078125 76.0018V11.9982ZM35.9921 11.9982C35.9921 5.3778 41.3691 0 47.9921 0C54.6151 0 59.9921 5.3778 59.9921 11.9982V76.0018C59.9921 82.6222 54.6151 88 47.9921 88C41.3691 88 35.9921 82.6222 35.9921 76.0018V11.9982ZM139.992 35.9948V51.9957C139.992 71.8664 123.861 88 103.992 88C84.1231 88 67.9921 71.8664 67.9921 51.9957V35.9948C67.9921 16.1336 84.1231 0 103.992 0C123.861 0 139.992 16.1336 139.992 35.9948ZM115.992 35.9948C115.992 29.3744 110.615 23.9965 103.992 23.9965C97.3691 23.9965 91.9921 29.3744 91.9921 35.9948V51.9957C91.9921 58.6256 97.3691 63.994 103.992 63.994C110.615 63.994 115.992 58.6256 115.992 51.9957V35.9948Z" fill="white"/>
</svg>
