<svg width="269" height="112" viewBox="0 0 269 112" fill="none" xmlns="http://www.w3.org/2000/svg">
<path fill-rule="evenodd" clip-rule="evenodd" d="M72 66.6383L46 81.5745V89.5745V108H26V64.4894L0 79.4255V112H4H26H46H72V108V74.6383L81 69.4681V108V112H107H127H153V108V28.1064L162 22.9362V104V111.894L269 50.4255V42.532V4V0H243H223H197V4V83.8937L188 89.0639V8V0L153 20.1064L127 35.0426L107 46.5319L81 61.4681L72 66.6383ZM46 49V39.5744L0 65.9999V64V57.9999V4V0H26H72V4H26V43.0637L72 16.6382V22V24.6382V58.6383L46 73.5745V53V49ZM197 108V99.7872L223 84.851V108H243V73.3616L269 58.4255V108V112H243H223H197V108ZM81 53.4681L107 38.5319V4H127V27.0426L153 12.1064V4V0H127H107H81V4V53.4681ZM243 4V57.4682L223 68.9575V4H243ZM107 108V54.5319L127 43.0426V108H107Z" fill="white"/>
</svg>
