<svg width="269" height="112" viewBox="0 0 269 112" fill="none" xmlns="http://www.w3.org/2000/svg">
<path fill-rule="evenodd" clip-rule="evenodd" d="M72 58.6382L46 73.5745V46.3208C46 44.1116 44.2092 42.3208 42 42.3208C41.6548 42.3208 41.3196 42.3645 41 42.4468L5.19604 63.0149C2.88379 64.3433 0 62.6741 0 60.0076C0 59.8594 0.00952148 59.7126 0.027832 59.5681C0.00952148 59.4106 0 59.2495 0 59.0852V4C0 1.79077 1.79077 0 4 0H22H68C70.2092 0 72 1.79077 72 4C72 6.20923 70.2092 8 68 8H30C27.7908 8 26 9.79077 26 12V36.3174C26 38.5266 27.7908 40.3174 30 40.3174C30.1384 40.3174 30.2754 40.3103 30.4102 40.2966C30.6116 40.2761 30.8086 40.2407 31 40.1914L66.804 19.6233C69.1162 18.2949 72 19.9641 72 22.6309V23.2485V23.9255V58.6382ZM81 61.4683L72 66.6384L46 81.5745V83.5823V100C46 102.209 44.2092 104 42 104H30C27.7908 104 26 102.209 26 100V72.6968C26 69.6702 22.7686 67.74 20.1035 69.175L2.10352 78.8672C0.807861 79.5649 0 80.9177 0 82.3892V108C0 110.209 1.79077 112 4 112H22H50H61H68C70.2092 112 72 110.209 72 108V74.6384L81 69.4683V108C81 110.209 82.7908 112 85 112H94H103H131H140H149C151.209 112 153 110.209 153 108V28.1064L157 25.8086C157.096 25.7837 157.194 25.7625 157.293 25.7449C157.522 25.7039 157.759 25.6826 158 25.6826C160.209 25.6826 162 27.4734 162 29.6826V106V106.5C162 108.885 164.5 110.5 166.448 109.339L269 50.4255V48.5249V4C269 1.79077 267.209 0 265 0H253H247H219H213H201C198.791 0 197 1.79077 197 4V83.894L193 86.1919C192.792 86.2456 192.576 86.283 192.356 86.3025C192.286 86.3086 192.216 86.313 192.146 86.3154L192.1 86.3169L192 86.3181C189.791 86.3181 188 84.5271 188 82.3181V6V5.99268C188 3.32593 185.116 1.65674 182.804 2.98511L153 20.1064L127 35.0427L107 46.5322L81 61.4683ZM107 38.532L81 53.468V4C81 1.79077 82.7908 0 85 0H94H103H131H140H149C151.209 0 153 1.79077 153 4V12.1064L127 27.0425V12C127 9.79077 125.209 8 123 8H111C108.791 8 107 9.79077 107 12V38.532ZM269 58.4255L243 73.3618V100C243 102.209 241.209 104 239 104H227C224.791 104 223 102.209 223 100V84.8511L197 99.7871V108C197 110.209 198.791 112 201 112H213H219H247H253H265C267.209 112 269 110.209 269 108V58.4255ZM107 54.532V100C107 102.209 108.791 104 111 104H123C125.209 104 127 102.209 127 100V43.0427L107 54.532ZM243 57.4685V12C243 9.79077 241.209 8 239 8H227C224.791 8 223 9.79077 223 12V68.9578L243 57.4685Z" fill="white"/>
</svg>
