<svg width="269" height="112" viewBox="0 0 269 112" fill="none" xmlns="http://www.w3.org/2000/svg">
<path fill-rule="evenodd" clip-rule="evenodd" d="M262.037 0H269V42.532V50.4479L162 111.916V104V22.9362L153 28.1064V66.6171V70.6171V108V112H127H107H81V108V69.4681L72 74.6383V108V112H46H26H4H0V78.9787L26 64.0425V93.0427L46 81.5533V81.5745L72 66.6383L81 61.4681L107 46.5319L127 35.0426L153 20.1064L188 0V8V89.0639L197 83.8937V41.3618V37.3618V0H216H223H243H262.037ZM153 0V0.000114441V12.1064L127 27.0426V14.9363L107 26.4256V38.5319L81 53.4681V41.3618V37.3618V0H100H107H127H146.037H153ZM65.0372 0H58H26H19H0V37.3618V41.3618V57.9999V64V65.9999L46 39.5744V73.5745L72 58.6383V24.6382V22V16.6382L26 43.0637V26.4256L72 0.000114441V0H65.0372ZM197 100.787V108V112H223H243H269V108V70.6171V66.6171V59.4255L243 74.3616V81.5533L223 93.0427V85.851L197 100.787ZM107 93.0427L127 81.5533V43.0426L107 54.5319V93.0427ZM243 57.4682L223 68.9575V26.4256L243 14.9363V57.4682Z" fill="white"/>
</svg>
