<svg width="54" height="40" viewBox="0 0 54 40" fill="none" xmlns="http://www.w3.org/2000/svg">
<path d="M44.3889 4.21668C44.3742 4.1892 44.3501 4.16803 44.3209 4.15716C41.0815 2.67066 37.6631 1.61027 34.1512 1.00251C34.1196 0.996725 34.087 1.001 34.0581 1.01473C34.0291 1.02847 34.0051 1.05096 33.9896 1.07904C33.5238 1.92449 33.1009 2.79291 32.7226 3.68098C28.935 3.10606 25.0822 3.10606 21.2945 3.68098C20.9147 2.79072 20.486 1.92208 20.0105 1.07904C19.9941 1.0518 19.97 1.03 19.9413 1.01639C19.9126 1.00278 19.8804 0.997948 19.849 1.00251C16.3309 1.60754 12.9065 2.668 9.66225 4.15716C9.6338 4.16921 9.60996 4.19008 9.59423 4.21668C3.11487 13.9017 1.33772 23.3401 2.20504 32.668C2.2075 32.6915 2.21481 32.7142 2.22652 32.7347C2.23824 32.7552 2.25409 32.773 2.27307 32.7871C6.04729 35.5787 10.2681 37.7093 14.7556 39.0879C14.7879 39.0978 14.8224 39.0975 14.8545 39.0868C14.8865 39.0761 14.9144 39.0557 14.9342 39.0283C15.897 37.7176 16.7502 36.3297 17.4851 34.8788C17.4949 34.8589 17.5004 34.8371 17.5014 34.8149C17.5024 34.7927 17.4988 34.7705 17.4908 34.7497C17.4828 34.729 17.4707 34.7101 17.455 34.6943C17.4394 34.6785 17.4207 34.666 17.4001 34.6578C16.0519 34.1412 14.7469 33.5185 13.4972 32.7956C13.4751 32.7821 13.4566 32.7634 13.4432 32.7413C13.4298 32.7191 13.4219 32.694 13.4203 32.6682C13.4186 32.6424 13.4232 32.6165 13.4336 32.5928C13.444 32.5691 13.46 32.5482 13.4801 32.532C13.7437 32.3364 14.0073 32.1323 14.2539 31.9283C14.2757 31.9092 14.3024 31.8966 14.331 31.8921C14.3596 31.8876 14.3889 31.8913 14.4155 31.9028C22.5955 35.6356 31.4557 35.6356 39.5421 31.9028C39.5679 31.8901 39.5968 31.885 39.6254 31.8881C39.6539 31.8911 39.6811 31.902 39.7037 31.9198C39.9503 32.1238 40.2139 32.3364 40.4775 32.532C40.4976 32.5482 40.5136 32.5691 40.524 32.5928C40.5344 32.6165 40.539 32.6424 40.5373 32.6682C40.5357 32.694 40.5278 32.7191 40.5144 32.7413C40.5011 32.7634 40.4825 32.7821 40.4605 32.7956C39.214 33.5222 37.9084 34.1423 36.5575 34.6493C36.5369 34.6575 36.5182 34.67 36.5026 34.6858C36.487 34.7016 36.4748 34.7205 36.4668 34.7412C36.4588 34.762 36.4552 34.7842 36.4562 34.8064C36.4572 34.8286 36.4627 34.8504 36.4725 34.8703C37.2202 36.314 38.0728 37.7009 39.0234 39.0198C39.0433 39.0472 39.0711 39.0676 39.1032 39.0783C39.1352 39.089 39.1698 39.0893 39.202 39.0794C43.7025 37.707 47.9355 35.5761 51.7186 32.7786C51.7379 32.7649 51.7541 32.7472 51.7658 32.7266C51.7776 32.7061 51.7847 32.6831 51.7866 32.6595C52.824 21.8861 50.0349 12.5242 44.3889 4.21668ZM18.7095 26.988C16.2437 26.988 14.2199 24.7261 14.2199 21.9541C14.2199 19.1821 16.2096 16.9118 18.7095 16.9118C21.235 16.9118 23.2417 19.1906 23.1992 21.9456C23.1992 24.7261 21.2095 26.988 18.7095 26.988ZM35.3246 26.988C32.8587 26.988 30.835 24.7261 30.835 21.9541C30.835 19.1821 32.8162 16.9118 35.3246 16.9118C37.85 16.9118 39.8567 19.1906 39.8142 21.9456C39.8142 24.7261 37.8415 26.988 35.3246 26.988Z" fill="white"/>
</svg>
