<svg width="42" height="36" viewBox="0 0 42 36" fill="none" xmlns="http://www.w3.org/2000/svg">
<path d="M2.57491 15.6781C2.57491 15.6781 21.1505 7.77538 27.5929 4.99265C30.0625 3.87963 38.4376 0.317796 38.4376 0.317796C38.4376 0.317796 42.3031 -1.24042 41.9809 2.54392C41.8735 4.10224 41.0145 9.5562 40.1557 15.4555C38.8671 23.8035 37.4712 32.9306 37.4712 32.9306C37.4712 32.9306 37.2565 35.4907 35.4312 35.9359C33.6058 36.3811 30.5993 34.3777 30.0625 33.9323C29.6329 33.5985 22.0095 28.5896 19.2178 26.1409C18.4661 25.4731 17.6072 24.1375 19.3251 22.5791C23.1906 18.906 27.8076 14.3425 30.5993 11.4485C31.8879 10.1128 33.1762 6.99617 27.8076 10.7806C20.1842 16.2347 12.6681 21.3547 12.6681 21.3547C12.6681 21.3547 10.95 22.4677 7.72888 21.4659C4.50757 20.4643 0.74946 19.1286 0.74946 19.1286C0.74946 19.1286 -1.82728 17.459 2.57491 15.6781Z" fill="white"/>
</svg>
